1.9Hzlow3min_grf.mot
version=1
nRows=27
nColumns 19
inDegrees=yes
endheader
time	1_ground_force_vx	1_ground_force_vy	1_ground_force_vz	1_ground_force_px	1_ground_force_py	1_ground_force_pz	1_ground_torque_x	1_ground_torque_y	1_ground_torque_z	2_ground_force_vx	2_ground_force_vy	2_ground_force_vz	2_ground_force_px	2_ground_force_py	2_ground_force_pz	2_ground_torque_x	2_ground_torque_y	2_ground_torque_z
            0.005000	           14.754178	          580.323401	          -50.146547	           -0.226086	            0.006335	           -0.431153	            0.075342	            2.963415	           -0.256073	           -8.950072	          615.972064	           48.144002	           -0.209865	            0.005745	           -0.703094	            0.028696	           -1.974930	           -0.154359
            0.005500	           14.849925	          574.910080	          -48.931850	           -0.225923	            0.006336	           -0.431280	            0.075837	            2.935990	           -0.249889	           -8.793092	          611.370377	           47.705163	           -0.209643	            0.005745	           -0.702911	            0.027554	           -1.915798	           -0.149489
            0.006000	           14.761438	          569.858691	          -48.036147	           -0.225776	            0.006338	           -0.431786	            0.074859	            2.889897	           -0.243603	           -8.778238	          607.138473	           46.704560	           -0.209455	            0.005745	           -0.702710	            0.028018	           -1.937837	           -0.149069
            0.006500	           14.993671	          565.168153	          -47.185554	           -0.225553	            0.006337	           -0.431529	            0.073108	            2.755715	           -0.230073	           -8.628151	          604.380323	           45.709155	           -0.209374	            0.005746	           -0.702825	            0.029153	           -2.042065	           -0.154441
            0.007000	           15.225905	          560.477493	          -46.334954	           -0.225251	            0.006337	           -0.431567	            0.072749	            2.677948	           -0.221387	           -8.431111	          601.621384	           44.948369	           -0.209252	            0.005746	           -0.702758	            0.027269	           -1.945827	           -0.145377
            0.007500	           15.458543	          556.687210	          -45.251214	           -0.225223	            0.006336	           -0.431400	            0.073319	            2.640333	           -0.214624	           -8.273692	          596.837459	           43.992664	           -0.209168	            0.005745	           -0.702401	            0.026663	           -1.923414	           -0.141774
            0.008000	           15.736362	          550.915812	          -44.588796	           -0.224899	            0.006338	           -0.431687	            0.077982	            2.730078	           -0.220961	           -7.751444	          594.816937	           43.046655	           -0.209066	            0.005746	           -0.702589	            0.024588	           -1.886768	           -0.136545
            0.008500	           15.465089	          545.142539	          -43.512307	           -0.224906	            0.006340	           -0.432162	            0.077345	            2.726386	           -0.217615	           -7.829440	          590.399108	           42.467788	           -0.208780	            0.005747	           -0.702404	            0.023485	           -1.770983	           -0.127388
            0.009000	           15.376257	          541.353298	          -42.657045	           -0.224857	            0.006339	           -0.432014	            0.077587	            2.731611	           -0.215243	           -7.209983	          587.456775	           41.940807	           -0.208781	            0.005747	           -0.702419	            0.022867	           -1.863175	           -0.133019
            0.009500	           15.334362	          535.940146	          -41.487866	           -0.224549	            0.006339	           -0.431958	            0.075428	            2.636216	           -0.204073	           -7.329635	          581.566534	           41.075135	           -0.208424	            0.005746	           -0.701800	            0.022569	           -1.790706	           -0.126475
            0.010000	           15.427940	          533.053554	          -40.950190	           -0.224625	            0.006336	           -0.431364	            0.071654	            2.475721	           -0.190190	           -7.322756	          579.544440	           40.082417	           -0.208237	            0.005748	           -0.702083	            0.023926	           -1.893585	           -0.130964
            0.010500	           15.567858	          526.201580	          -40.521345	           -0.224377	            0.006339	           -0.431950	            0.069389	            2.345390	           -0.180612	           -6.982529	          576.049613	           39.272016	           -0.207932	            0.005748	           -0.701906	            0.022758	           -1.877546	           -0.128001
            0.011000	           15.570958	          521.690975	          -39.623551	           -0.224088	            0.006339	           -0.432072	            0.069673	            2.334330	           -0.177297	           -6.969607	          572.369690	           38.414169	           -0.208016	            0.005748	           -0.701912	            0.022115	           -1.816135	           -0.121889
            0.011500	           15.848531	          516.640837	          -39.003894	           -0.223928	            0.006341	           -0.432359	            0.074076	            2.414765	           -0.182303	           -7.004822	          569.057544	           37.651512	           -0.207957	            0.005748	           -0.701839	            0.020961	           -1.702830	           -0.112667
            0.012000	           15.668208	          513.031360	          -38.055927	           -0.224061	            0.006339	           -0.431877	            0.074379	            2.435438	           -0.180657	           -6.754266	          564.457200	           36.931065	           -0.207790	            0.005748	           -0.701829	            0.020880	           -1.744930	           -0.114167
            0.012500	           15.625237	          508.521139	          -37.249731	           -0.223737	            0.006338	           -0.431644	            0.072613	            2.363192	           -0.173106	           -6.460744	          560.961032	           36.449180	           -0.207801	            0.005748	           -0.701710	            0.020654	           -1.793337	           -0.116524
            0.013000	           15.673825	          502.209128	          -36.634916	           -0.223542	            0.006340	           -0.432275	            0.073123	            2.342938	           -0.170912	           -6.402260	          557.649224	           35.686483	           -0.207559	            0.005748	           -0.701499	            0.020441	           -1.780441	           -0.113938
            0.013500	           15.813999	          497.699336	          -35.920887	           -0.223325	            0.006341	           -0.432320	            0.067866	            2.135872	           -0.154154	           -6.438764	          554.705025	           35.018997	           -0.207531	            0.005748	           -0.701440	            0.020879	           -1.798723	           -0.113555
            0.014000	           15.862713	          493.189195	          -35.114918	           -0.223401	            0.006341	           -0.432389	            0.065192	            2.026892	           -0.144314	           -6.518089	          550.655356	           34.441444	           -0.207327	            0.005748	           -0.701321	            0.020106	           -1.698605	           -0.106241
            0.014500	           16.461774	          488.678706	          -34.218603	           -0.222985	            0.006340	           -0.432245	            0.069693	            2.068870	           -0.144868	           -6.315712	          546.423246	           33.722331	           -0.207070	            0.005749	           -0.701190	            0.019366	           -1.675512	           -0.103404
            0.015000	           16.555732	          483.088355	          -33.738374	           -0.222808	            0.006342	           -0.432534	            0.073171	            2.135104	           -0.149113	           -6.210439	          543.111988	           32.818829	           -0.206925	            0.005749	           -0.701143	            0.018640	           -1.630103	           -0.098503
            0.015500	           16.466819	          479.118954	          -32.929745	           -0.222882	            0.006340	           -0.432240	            0.074953	            2.180845	           -0.149889	           -5.964473	          539.800187	           32.243765	           -0.206808	            0.005749	           -0.700992	            0.017840	           -1.614554	           -0.096442
            0.016000	           16.561038	          473.347914	          -32.358584	           -0.222639	            0.006343	           -0.432961	            0.073983	            2.114584	           -0.144555	           -5.717946	          536.305144	           31.433404	           -0.206428	            0.005750	           -0.701003	            0.017945	           -1.683095	           -0.098648
            0.016500	           16.656165	          468.836737	          -31.323446	           -0.222672	            0.006342	           -0.432580	            0.070666	            1.989101	           -0.132894	           -5.706167	          532.991874	           30.999224	           -0.206728	            0.005749	           -0.700882	            0.018022	           -1.683384	           -0.097907
            0.017000	           16.567675	          465.046846	          -30.330620	           -0.222428	            0.006341	           -0.432495	            0.063423	            1.780255	           -0.116109	           -5.595476	          528.206775	           30.325107	           -0.206462	            0.005749	           -0.700604	            0.017951	           -1.694558	           -0.097287
            0.017500	           16.890634	          459.997503	          -29.894501	           -0.222325	            0.006342	           -0.432685	            0.063910	            1.740507	           -0.113113	           -5.581080	          524.157277	           29.794443	           -0.206054	            0.005749	           -0.700400	            0.017552	           -1.648460	           -0.093703
            0.018000	           17.076243	          455.848841	          -29.316607	           -0.222276	            0.006341	           -0.432339	            0.068815	            1.836998	           -0.118141	           -5.709913	          520.844123	           29.219538	           -0.206189	            0.005749	           -0.700346	            0.016927	           -1.544030	           -0.086621
